<?xml version="1.0" standalone="no"?>
 <!DOCTYPE svg PUBLIC "-//W3C//DTD SVG 1.1//EN" 
 "http://www.w3.org/Graphics/SVG/1.1/DTD/svg11.dtd"> 
<svg xmlns="http://www.w3.org/2000/svg" version="1.1" 
    width="41.9989cm" height="29.7002cm" viewBox="0 0 165350 116930 ">
<title>SVG Picture created as KEY REFILLER LCD--brd.svg date 2015/07/11 03:38:03 </title>
  <desc>Picture generated by PCBNEW </desc>
<g style="fill:#000000; fill-opacity:1;stroke:#000000; stroke-opacity:1;
stroke-linecap:round; stroke-linejoin:round; "
 transform="translate(0 0) scale(1 1)">
</g>
<g style="fill:#000000; fill-opacity:0.0; 
stroke:#000000; stroke-width:39.3701; stroke-opacity:1; 
stroke-linecap:round; stroke-linejoin:round;">
<path d="M4000 4000
L161350 4000
L161350 112930
L4000 112930
L4000 4000
" />
<path d="M4700 4700
L160650 4700
L160650 112230
L4700 112230
L4700 4700
" />
<path d="M26470 4000
L26470 4700
" />
<path d="M15382 4552
L15097 4552
" />
<path d="M15240 4552
L15240 4052
L15192 4123
L15144 4171
L15097 4195
" />
<path d="M26470 112930
L26470 112230
" />
<path d="M15382 112782
L15097 112782
" />
<path d="M15240 112782
L15240 112282
L15192 112353
L15144 112401
L15097 112425
" />
<path d="M48940 4000
L48940 4700
" />
<path d="M37567 4100
L37590 4076
L37638 4052
L37757 4052
L37805 4076
L37829 4100
L37852 4147
L37852 4195
L37829 4266
L37543 4552
L37852 4552
" />
<path d="M48940 112930
L48940 112230
" />
<path d="M37567 112330
L37590 112306
L37638 112282
L37757 112282
L37805 112306
L37829 112330
L37852 112377
L37852 112425
L37829 112496
L37543 112782
L37852 112782
" />
<path d="M71410 4000
L71410 4700
" />
<path d="M60013 4052
L60322 4052
L60156 4242
L60227 4242
L60275 4266
L60299 4290
L60322 4338
L60322 4457
L60299 4504
L60275 4528
L60227 4552
L60084 4552
L60037 4528
L60013 4504
" />
<path d="M71410 112930
L71410 112230
" />
<path d="M60013 112282
L60322 112282
L60156 112472
L60227 112472
L60275 112496
L60299 112520
L60322 112568
L60322 112687
L60299 112734
L60275 112758
L60227 112782
L60084 112782
L60037 112758
L60013 112734
" />
<path d="M93880 4000
L93880 4700
" />
<path d="M82745 4219
L82745 4552
" />
<path d="M82626 4028
L82507 4385
L82816 4385
" />
<path d="M93880 112930
L93880 112230
" />
<path d="M82745 112449
L82745 112782
" />
<path d="M82626 112258
L82507 112615
L82816 112615
" />
<path d="M116350 4000
L116350 4700
" />
<path d="M105239 4052
L105000 4052
L104977 4290
L105000 4266
L105048 4242
L105167 4242
L105215 4266
L105239 4290
L105262 4338
L105262 4457
L105239 4504
L105215 4528
L105167 4552
L105048 4552
L105000 4528
L104977 4504
" />
<path d="M116350 112930
L116350 112230
" />
<path d="M105239 112282
L105000 112282
L104977 112520
L105000 112496
L105048 112472
L105167 112472
L105215 112496
L105239 112520
L105262 112568
L105262 112687
L105239 112734
L105215 112758
L105167 112782
L105048 112782
L105000 112758
L104977 112734
" />
<path d="M138820 4000
L138820 4700
" />
<path d="M127685 4052
L127590 4052
L127542 4076
L127518 4100
L127470 4171
L127447 4266
L127447 4457
L127470 4504
L127494 4528
L127542 4552
L127637 4552
L127685 4528
L127709 4504
L127732 4457
L127732 4338
L127709 4290
L127685 4266
L127637 4242
L127542 4242
L127494 4266
L127470 4290
L127447 4338
" />
<path d="M138820 112930
L138820 112230
" />
<path d="M127685 112282
L127590 112282
L127542 112306
L127518 112330
L127470 112401
L127447 112496
L127447 112687
L127470 112734
L127494 112758
L127542 112782
L127637 112782
L127685 112758
L127709 112734
L127732 112687
L127732 112568
L127709 112520
L127685 112496
L127637 112472
L127542 112472
L127494 112496
L127470 112520
L127447 112568
" />
<path d="M149893 4052
L150226 4052
L150012 4552
" />
<path d="M149893 112282
L150226 112282
L150012 112782
" />
<path d="M4000 25780
L4700 25780
" />
<path d="M4230 14949
L4469 14949
" />
<path d="M4183 15092
L4350 14592
L4516 15092
" />
<path d="M161350 25780
L160650 25780
" />
<path d="M160880 14949
L161119 14949
" />
<path d="M160833 15092
L161000 14592
L161166 15092
" />
<path d="M4000 47560
L4700 47560
" />
<path d="M4385 36610
L4457 36634
L4480 36658
L4504 36705
L4504 36777
L4480 36824
L4457 36848
L4409 36872
L4219 36872
L4219 36372
L4385 36372
L4433 36396
L4457 36420
L4480 36467
L4480 36515
L4457 36562
L4433 36586
L4385 36610
L4219 36610
" />
<path d="M161350 47560
L160650 47560
" />
<path d="M161035 36610
L161107 36634
L161130 36658
L161154 36705
L161154 36777
L161130 36824
L161107 36848
L161059 36872
L160869 36872
L160869 36372
L161035 36372
L161083 36396
L161107 36420
L161130 36467
L161130 36515
L161107 36562
L161083 36586
L161035 36610
L160869 36610
" />
<path d="M4000 69340
L4700 69340
" />
<path d="M4504 58604
L4480 58628
L4409 58652
L4361 58652
L4290 58628
L4242 58580
L4219 58533
L4195 58438
L4195 58366
L4219 58271
L4242 58223
L4290 58176
L4361 58152
L4409 58152
L4480 58176
L4504 58200
" />
<path d="M161350 69340
L160650 69340
" />
<path d="M161154 58604
L161130 58628
L161059 58652
L161011 58652
L160940 58628
L160892 58580
L160869 58533
L160845 58438
L160845 58366
L160869 58271
L160892 58223
L160940 58176
L161011 58152
L161059 58152
L161130 58176
L161154 58200
" />
<path d="M4000 91120
L4700 91120
" />
<path d="M4219 80432
L4219 79932
L4338 79932
L4409 79956
L4457 80003
L4480 80051
L4504 80146
L4504 80218
L4480 80313
L4457 80360
L4409 80408
L4338 80432
L4219 80432
" />
<path d="M161350 91120
L160650 91120
" />
<path d="M160869 80432
L160869 79932
L160988 79932
L161059 79956
L161107 80003
L161130 80051
L161154 80146
L161154 80218
L161130 80313
L161107 80360
L161059 80408
L160988 80432
L160869 80432
" />
<path d="M4242 101950
L4409 101950
" />
<path d="M4480 102212
L4242 102212
L4242 101712
L4480 101712
" />
<path d="M160892 101950
L161059 101950
" />
<path d="M161130 102212
L160892 102212
L160892 101712
L161130 101712
" />
<path d="M127800 110672
L127875 110072
L128017 110072
L128100 110101
L128150 110158
L128171 110215
L128185 110330
L128175 110415
L128132 110530
L128096 110587
L128032 110644
L127942 110672
L127800 110672
" />
<path d="M128657 110672
L128696 110358
L128675 110301
L128621 110272
L128507 110272
L128446 110301
" />
<path d="M128660 110644
L128600 110672
L128457 110672
L128403 110644
L128382 110587
L128389 110530
L128425 110472
L128485 110444
L128628 110444
L128689 110415
" />
<path d="M128907 110272
L129135 110272
" />
<path d="M129017 110072
L128953 110587
L128975 110644
L129028 110672
L129085 110672
" />
<path d="M129517 110644
L129457 110672
L129342 110672
L129289 110644
L129267 110587
L129296 110358
L129332 110301
L129392 110272
L129507 110272
L129560 110301
L129582 110358
L129575 110415
L129282 110472
" />
<path d="M129807 110615
L129832 110644
L129800 110672
L129775 110644
L129807 110615
L129800 110672
" />
<path d="M129846 110301
L129871 110330
L129839 110358
L129814 110330
L129846 110301
L129839 110358
" />
<path d="M130857 110672
L130514 110672
" />
<path d="M130685 110672
L130760 110072
L130692 110158
L130628 110215
L130567 110244
" />
<path d="M131428 110672
L131085 110672
" />
<path d="M131257 110672
L131332 110072
L131264 110158
L131200 110215
L131139 110244
" />
<path d="M132192 110272
L132128 110787
L132092 110844
L132032 110872
L132003 110872
" />
<path d="M132217 110072
L132185 110101
L132210 110130
L132242 110101
L132217 110072
L132210 110130
" />
<path d="M132735 110272
L132685 110672
" />
<path d="M132478 110272
L132439 110587
L132460 110644
L132514 110672
L132600 110672
L132660 110644
L132692 110615
" />
<path d="M133057 110672
L133003 110644
L132982 110587
L133046 110072
" />
<path d="M133782 110130
L133814 110101
L133875 110072
L134017 110072
L134071 110101
L134096 110130
L134117 110187
L134110 110244
L134071 110330
L133685 110672
L134057 110672
" />
<path d="M134503 110072
L134560 110072
L134614 110101
L134639 110130
L134660 110187
L134675 110301
L134657 110444
L134614 110558
L134578 110615
L134546 110644
L134485 110672
L134428 110672
L134375 110644
L134350 110615
L134328 110558
L134314 110444
L134332 110301
L134375 110187
L134410 110130
L134442 110101
L134503 110072
" />
<path d="M135200 110672
L134857 110672
" />
<path d="M135028 110672
L135103 110072
L135035 110158
L134971 110215
L134910 110244
" />
<path d="M135817 110072
L135532 110072
L135467 110358
L135500 110330
L135560 110301
L135703 110301
L135757 110330
L135782 110358
L135803 110415
L135785 110558
L135750 110615
L135717 110644
L135657 110672
L135514 110672
L135460 110644
L135435 110615
" />
<path d="M119392 111872
L119392 111272
" />
<path d="M119735 111872
L119478 111530
" />
<path d="M119735 111272
L119392 111615
" />
<path d="M119992 111872
L119992 111472
" />
<path d="M119992 111272
L119964 111301
L119992 111330
L120021 111301
L119992 111272
L119992 111330
" />
<path d="M120621 111815
L120592 111844
L120507 111872
L120450 111872
L120364 111844
L120307 111787
L120278 111730
L120250 111615
L120250 111530
L120278 111415
L120307 111358
L120364 111301
L120450 111272
L120507 111272
L120592 111301
L120621 111330
" />
<path d="M121135 111872
L121135 111558
L121107 111501
L121050 111472
L120935 111472
L120878 111501
" />
<path d="M121135 111844
L121078 111872
L120935 111872
L120878 111844
L120850 111787
L120850 111730
L120878 111672
L120935 111644
L121078 111644
L121135 111615
" />
<path d="M121678 111872
L121678 111272
" />
<path d="M121678 111844
L121621 111872
L121507 111872
L121450 111844
L121421 111815
L121392 111758
L121392 111587
L121421 111530
L121450 111501
L121507 111472
L121621 111472
L121678 111501
" />
<path d="M122421 111558
L122621 111558
" />
<path d="M122707 111872
L122421 111872
L122421 111272
L122707 111272
" />
<path d="M122964 111815
L122992 111844
L122964 111872
L122935 111844
L122964 111815
L122964 111872
" />
<path d="M123249 111872
L123249 111272
L123392 111272
L123478 111301
L123535 111358
L123564 111415
L123592 111530
L123592 111615
L123564 111730
L123535 111787
L123478 111844
L123392 111872
L123249 111872
" />
<path d="M123849 111815
L123878 111844
L123849 111872
L123821 111844
L123849 111815
L123849 111872
" />
<path d="M124107 111701
L124392 111701
" />
<path d="M124049 111872
L124249 111272
L124449 111872
" />
<path d="M124649 111815
L124678 111844
L124649 111872
L124621 111844
L124649 111815
L124649 111872
" />
<path d="M152942 110672
L152778 110387
" />
<path d="M152600 110672
L152675 110072
L152903 110072
L152957 110101
L152982 110130
L153003 110187
L152992 110272
L152957 110330
L152925 110358
L152864 110387
L152635 110387
" />
<path d="M153432 110644
L153371 110672
L153257 110672
L153203 110644
L153182 110587
L153210 110358
L153246 110301
L153307 110272
L153421 110272
L153475 110301
L153496 110358
L153489 110415
L153196 110472
" />
<path d="M153707 110272
L153800 110672
L153992 110272
" />
<path d="M154178 110615
L154203 110644
L154171 110672
L154146 110644
L154178 110615
L154171 110672
" />
<path d="M154217 110301
L154242 110330
L154210 110358
L154185 110330
L154217 110301
L154210 110358
" />
<path d="M119364 110644
L119450 110672
L119592 110672
L119650 110644
L119678 110615
L119707 110558
L119707 110501
L119678 110444
L119650 110415
L119592 110387
L119478 110358
L119421 110330
L119392 110301
L119364 110244
L119364 110187
L119392 110130
L119421 110101
L119478 110072
L119621 110072
L119707 110101
" />
<path d="M119964 110672
L119964 110272
" />
<path d="M119964 110072
L119935 110101
L119964 110130
L119992 110101
L119964 110072
L119964 110130
" />
<path d="M120192 110272
L120507 110272
L120192 110672
L120507 110672
" />
<path d="M120964 110644
L120907 110672
L120792 110672
L120735 110644
L120707 110587
L120707 110358
L120735 110301
L120792 110272
L120907 110272
L120964 110301
L120992 110358
L120992 110415
L120707 110472
" />
<path d="M121250 110615
L121278 110644
L121250 110672
L121221 110644
L121250 110615
L121250 110672
" />
<path d="M121250 110301
L121278 110330
L121250 110358
L121221 110330
L121250 110301
L121250 110358
" />
<path d="M121964 110501
L122250 110501
" />
<path d="M121907 110672
L122107 110072
L122307 110672
" />
<path d="M122450 110072
L122821 110072
L122621 110301
L122707 110301
L122764 110330
L122792 110358
L122821 110415
L122821 110558
L122792 110615
L122764 110644
L122707 110672
L122535 110672
L122478 110644
L122450 110615
" />
<path d="M152592 111872
L152592 111272
" />
<path d="M153135 111872
L153135 111272
" />
<path d="M153135 111844
L153078 111872
L152964 111872
L152907 111844
L152878 111815
L152850 111758
L152850 111587
L152878 111530
L152907 111501
L152964 111472
L153078 111472
L153135 111501
" />
<path d="M153421 111815
L153450 111844
L153421 111872
L153392 111844
L153421 111815
L153421 111872
" />
<path d="M153421 111501
L153450 111530
L153421 111558
L153392 111530
L153421 111501
L153421 111558
" />
<path d="M154478 111872
L154135 111872
" />
<path d="M154307 111872
L154307 111272
L154249 111358
L154192 111415
L154135 111444
" />
<path d="M155164 111244
L154650 112015
" />
<path d="M155678 111872
L155335 111872
" />
<path d="M155507 111872
L155507 111272
L155449 111358
L155392 111415
L155335 111444
" />
<path d="M119389 108872
L119732 108872
" />
<path d="M119485 109472
L119560 108872
" />
<path d="M119857 109472
L119907 109072
" />
<path d="M119932 108872
L119900 108901
L119925 108930
L119957 108901
L119932 108872
L119925 108930
" />
<path d="M120107 109072
L120335 109072
" />
<path d="M120217 108872
L120153 109387
L120175 109444
L120228 109472
L120285 109472
" />
<path d="M120571 109472
L120517 109444
L120496 109387
L120560 108872
" />
<path d="M121032 109444
L120971 109472
L120857 109472
L120803 109444
L120782 109387
L120810 109158
L120846 109101
L120907 109072
L121021 109072
L121075 109101
L121096 109158
L121089 109215
L120796 109272
" />
<path d="M121321 109415
L121346 109444
L121314 109472
L121289 109444
L121321 109415
L121314 109472
" />
<path d="M121360 109101
L121385 109130
L121353 109158
L121328 109130
L121360 109101
L121353 109158
" />
<path d="M119592 106758
L119392 106758
" />
<path d="M119392 107072
L119392 106472
L119678 106472
" />
<path d="M119907 107072
L119907 106672
" />
<path d="M119907 106472
L119878 106501
L119907 106530
L119935 106501
L119907 106472
L119907 106530
" />
<path d="M120278 107072
L120221 107044
L120192 106987
L120192 106472
" />
<path d="M120735 107044
L120678 107072
L120564 107072
L120507 107044
L120478 106987
L120478 106758
L120507 106701
L120564 106672
L120678 106672
L120735 106701
L120764 106758
L120764 106815
L120478 106872
" />
<path d="M121021 107015
L121050 107044
L121021 107072
L120992 107044
L121021 107015
L121021 107072
" />
<path d="M121021 106701
L121050 106730
L121021 106758
L120992 106730
L121021 106701
L121021 106758
" />
<path d="M121764 107072
L121764 106472
" />
<path d="M122107 107072
L121850 106730
" />
<path d="M122107 106472
L121764 106815
" />
<path d="M122364 106758
L122564 106758
" />
<path d="M122650 107072
L122364 107072
L122364 106472
L122650 106472
" />
<path d="M123021 106787
L123021 107072
" />
<path d="M122821 106472
L123021 106787
L123221 106472
" />
<path d="M124221 107072
L124021 106787
" />
<path d="M123878 107072
L123878 106472
L124107 106472
L124164 106501
L124192 106530
L124221 106587
L124221 106672
L124192 106730
L124164 106758
L124107 106787
L123878 106787
" />
<path d="M124478 106758
L124678 106758
" />
<path d="M124764 107072
L124478 107072
L124478 106472
L124764 106472
" />
<path d="M125221 106758
L125021 106758
" />
<path d="M125021 107072
L125021 106472
L125307 106472
" />
<path d="M125535 107072
L125535 106472
" />
<path d="M126107 107072
L125821 107072
L125821 106472
" />
<path d="M126592 107072
L126307 107072
L126307 106472
" />
<path d="M126792 106758
L126992 106758
" />
<path d="M127078 107072
L126792 107072
L126792 106472
L127078 106472
" />
<path d="M127678 107072
L127478 106787
" />
<path d="M127335 107072
L127335 106472
L127564 106472
L127621 106501
L127650 106530
L127678 106587
L127678 106672
L127650 106730
L127621 106758
L127564 106787
L127335 106787
" />
<path d="M128678 107072
L128392 107072
L128392 106472
" />
<path d="M129221 107015
L129192 107044
L129107 107072
L129050 107072
L128964 107044
L128907 106987
L128878 106930
L128850 106815
L128850 106730
L128878 106615
L128907 106558
L128964 106501
L129050 106472
L129107 106472
L129192 106501
L129221 106530
" />
<path d="M129478 107072
L129478 106472
L129621 106472
L129707 106501
L129764 106558
L129792 106615
L129821 106730
L129821 106815
L129792 106930
L129764 106987
L129707 107044
L129621 107072
L129478 107072
" />
<path d="M130078 107015
L130107 107044
L130078 107072
L130050 107044
L130078 107015
L130078 107072
" />
<path d="M130364 107072
L130364 106472
" />
<path d="M130421 106844
L130592 107072
" />
<path d="M130592 106672
L130364 106901
" />
<path d="M130849 107072
L130849 106672
" />
<path d="M130849 106472
L130821 106501
L130849 106530
L130878 106501
L130849 106472
L130849 106530
" />
<path d="M131392 107044
L131335 107072
L131221 107072
L131164 107044
L131135 107015
L131107 106958
L131107 106787
L131135 106730
L131164 106701
L131221 106672
L131335 106672
L131392 106701
" />
<path d="M131907 107072
L131907 106758
L131878 106701
L131821 106672
L131707 106672
L131649 106701
" />
<path d="M131907 107044
L131849 107072
L131707 107072
L131649 107044
L131621 106987
L131621 106930
L131649 106872
L131707 106844
L131849 106844
L131907 106815
" />
<path d="M132449 107072
L132449 106472
" />
<path d="M132449 107044
L132392 107072
L132278 107072
L132221 107044
L132192 107015
L132164 106958
L132164 106787
L132192 106730
L132221 106701
L132278 106672
L132392 106672
L132449 106701
" />
<path d="M132592 107130
L133049 107130
" />
<path d="M133192 106672
L133192 107272
" />
<path d="M133192 106701
L133249 106672
L133364 106672
L133421 106701
L133449 106730
L133478 106787
L133478 106958
L133449 107015
L133421 107044
L133364 107072
L133249 107072
L133192 107044
" />
<path d="M133992 107044
L133935 107072
L133821 107072
L133764 107044
L133735 107015
L133707 106958
L133707 106787
L133735 106730
L133764 106701
L133821 106672
L133935 106672
L133992 106701
" />
<path d="M134249 107072
L134249 106472
" />
<path d="M134249 106701
L134307 106672
L134421 106672
L134478 106701
L134507 106730
L134535 106787
L134535 106958
L134507 107015
L134478 107044
L134421 107072
L134307 107072
L134249 107044
" />
<path d="M119364 108244
L119450 108272
L119592 108272
L119650 108244
L119678 108215
L119707 108158
L119707 108101
L119678 108044
L119650 108015
L119592 107987
L119478 107958
L119421 107930
L119392 107901
L119364 107844
L119364 107787
L119392 107730
L119421 107701
L119478 107672
L119621 107672
L119707 107701
" />
<path d="M119964 108272
L119964 107672
" />
<path d="M120221 108272
L120221 107958
L120192 107901
L120135 107872
L120050 107872
L119992 107901
L119964 107930
" />
<path d="M120735 108244
L120678 108272
L120564 108272
L120507 108244
L120478 108187
L120478 107958
L120507 107901
L120564 107872
L120678 107872
L120735 107901
L120764 107958
L120764 108015
L120478 108072
" />
<path d="M121250 108244
L121192 108272
L121078 108272
L121021 108244
L120992 108187
L120992 107958
L121021 107901
L121078 107872
L121192 107872
L121250 107901
L121278 107958
L121278 108015
L120992 108072
" />
<path d="M121450 107872
L121678 107872
" />
<path d="M121535 107672
L121535 108187
L121564 108244
L121621 108272
L121678 108272
" />
<path d="M121878 108215
L121907 108244
L121878 108272
L121850 108244
L121878 108215
L121878 108272
" />
<path d="M121878 107901
L121907 107930
L121878 107958
L121850 107930
L121878 107901
L121878 107958
" />
<path d="M118650 106230
L118650 112230
" />
<path d="M118650 106230
L160650 106230
" />
<path d="M118650 106230
L160650 106230
" />
<path d="M118650 108630
L160650 108630
" />
<path d="M151850 109830
L151850 112230
" />
<path d="M118650 111030
L160650 111030
" />
<path d="M118650 109830
L160650 109830
" />
<path d="M125250 109830
L125250 111030
" />
</g>
<g style="fill:#FFFF00; fill-opacity:0.0; 
stroke:#FFFF00; stroke-width:78.7402; stroke-opacity:1; 
stroke-linecap:round; stroke-linejoin:round;">
<circle cx="44000" cy="26000" r="500" /> 
<circle cx="14000" cy="26000" r="500" /> 
<circle cx="14000" cy="11500" r="500" /> 
<circle cx="44000" cy="11500" r="500" /> 
<path d="M63500 10000
L46000 10000
" />
<path d="M63500 27500
L63500 10000
" />
<path d="M46000 27500
L63500 27500
" />
<path d="M46000 10000
L46000 27500
" />
<path d="M12500 27500
L12500 10000
" />
<path d="M45500 27500
L12500 27500
" />
<path d="M45500 10000
L45500 27500
" />
<path d="M12500 10000
L45500 10000
" />
</g>
<g style="fill:#009F9F; fill-opacity:0.0; 
stroke:#009F9F; stroke-width:80; stroke-opacity:1; 
stroke-linecap:round; stroke-linejoin:round;">
<path d="M29700 16533
L29680 16566
L29642 16600
L29585 16650
L29566 16683
L29566 16716
" />
<path d="M29661 16700
L29642 16733
L29604 16766
L29528 16783
L29395 16783
L29319 16766
L29280 16733
L29261 16700
L29261 16633
L29280 16600
L29319 16566
L29395 16550
L29528 16550
L29604 16566
L29642 16600
L29661 16633
L29661 16700
" />
<path d="M29661 16216
L29661 16416
" />
<path d="M29661 16316
L29261 16316
L29319 16350
L29357 16383
L29376 16416
" />
<path d="M24666 20302
L24500 20064
" />
<path d="M24380 20302
L24380 19802
L24571 19802
L24619 19826
L24642 19850
L24666 19897
L24666 19969
L24642 20016
L24619 20040
L24571 20064
L24380 20064
" />
<path d="M25166 20302
L25000 20064
" />
<path d="M24880 20302
L24880 19802
L25071 19802
L25119 19826
L25142 19850
L25166 19897
L25166 19969
L25142 20016
L25119 20040
L25071 20064
L24880 20064
" />
<path d="M25642 20302
L25357 20302
" />
<path d="M25500 20302
L25500 19802
L25452 19873
L25404 19921
L25357 19945
" />
<path d="M24223 18361
L23995 18361
" />
<path d="M24109 18361
L24109 17961
L24071 18019
L24033 18057
L23995 18076
" />
<path d="M24471 17961
L24509 17961
L24547 17980
L24566 18000
L24585 18038
L24604 18114
L24604 18209
L24585 18285
L24566 18323
L24547 18342
L24509 18361
L24471 18361
L24433 18342
L24414 18323
L24395 18285
L24376 18209
L24376 18114
L24395 18038
L24414 18000
L24433 17980
L24471 17961
" />
<path d="M24776 18361
L24776 17961
" />
<path d="M25004 18361
L24833 18133
" />
<path d="M25004 17961
L24776 18190
" />
<path d="M33666 18102
L33500 17864
" />
<path d="M33380 18102
L33380 17602
L33571 17602
L33619 17626
L33642 17650
L33666 17697
L33666 17769
L33642 17816
L33619 17840
L33571 17864
L33380 17864
" />
<path d="M34166 18102
L34000 17864
" />
<path d="M33880 18102
L33880 17602
L34071 17602
L34119 17626
L34142 17650
L34166 17697
L34166 17769
L34142 17816
L34119 17840
L34071 17864
L33880 17864
" />
<path d="M34357 17650
L34380 17626
L34428 17602
L34547 17602
L34595 17626
L34619 17650
L34642 17697
L34642 17745
L34619 17816
L34333 18102
L34642 18102
" />
<path d="M34223 19961
L33995 19961
" />
<path d="M34109 19961
L34109 19561
L34071 19619
L34033 19657
L33995 19676
" />
<path d="M34471 19561
L34509 19561
L34547 19580
L34566 19600
L34585 19638
L34604 19714
L34604 19809
L34585 19885
L34566 19923
L34547 19942
L34509 19961
L34471 19961
L34433 19942
L34414 19923
L34395 19885
L34376 19809
L34376 19714
L34395 19638
L34414 19600
L34433 19580
L34471 19561
" />
<path d="M34776 19961
L34776 19561
" />
<path d="M35004 19961
L34833 19733
" />
<path d="M35004 19561
L34776 19790
" />
</g>
<g style="fill:#009F9F; fill-opacity:0.0; 
stroke:#009F9F; stroke-width:59.0551; stroke-opacity:1; 
stroke-linecap:round; stroke-linejoin:round;">
<path d="M28159 13734
L27971 13865
" />
<path d="M28159 13959
L27765 13959
L27765 13809
L27784 13771
L27803 13753
L27840 13734
L27896 13734
L27934 13753
L27953 13771
L27971 13809
L27971 13959
" />
<path d="M27765 13621
L28159 13490
L27765 13359
" />
<path d="M28159 13021
L28159 13246
" />
<path d="M28159 13134
L27765 13134
L27821 13171
L27859 13209
L27878 13246
" />
<path d="M23159 13771
L23159 13996
" />
<path d="M23159 13884
L22765 13884
L22821 13921
L22859 13959
L22878 13996
" />
<path d="M22765 13528
L22765 13490
L22784 13453
L22803 13434
L22840 13415
L22915 13396
L23009 13396
L23084 13415
L23121 13434
L23140 13453
L23159 13490
L23159 13528
L23140 13565
L23121 13584
L23084 13603
L23009 13621
L22915 13621
L22840 13603
L22803 13584
L22784 13565
L22765 13528
" />
<path d="M23159 13228
L22765 13228
" />
<path d="M23159 13003
L22934 13171
" />
<path d="M22765 13003
L22990 13228
" />
</g>
<g style="fill:#009F9F; fill-opacity:0.0; 
stroke:#009F9F; stroke-width:80; stroke-opacity:1; 
stroke-linecap:round; stroke-linejoin:round;">
<path d="M45661 21795
L45261 21795
L45261 21642
L45280 21604
L45300 21585
L45338 21566
L45395 21566
L45433 21585
L45452 21604
L45471 21642
L45471 21795
" />
<path d="M45300 21414
L45280 21395
L45261 21357
L45261 21261
L45280 21223
L45300 21204
L45338 21185
L45376 21185
L45433 21204
L45661 21433
L45661 21185
" />
</g>
<g style="fill:#009F9F; fill-opacity:0.0; 
stroke:#009F9F; stroke-width:60; stroke-opacity:1; 
stroke-linecap:round; stroke-linejoin:round;">
<path d="M28778 26371
L28778 26071
L28892 26071
L28921 26085
L28935 26100
L28950 26128
L28950 26171
L28935 26200
L28921 26214
L28892 26228
L28778 26228
" />
<path d="M29235 26371
L29064 26371
" />
<path d="M29150 26371
L29150 26071
L29121 26114
L29092 26142
L29064 26157
" />
</g>
<g style="fill:#9F009F; fill-opacity:0.0; 
stroke:#9F009F; stroke-width:62; stroke-opacity:1; 
stroke-linecap:round; stroke-linejoin:round;">
<path d="M32700 9871
L32451 9871
L32451 9930
L32463 9966
L32487 9990
L32511 10002
L32558 10013
L32594 10013
L32641 10002
L32665 9990
L32688 9966
L32700 9930
L32700 9871
" />
<path d="M32724 10061
L32724 10251
" />
<path d="M32700 10428
L32700 10310
L32451 10310
" />
<path d="M32677 10654
L32688 10642
L32700 10606
L32700 10583
L32688 10547
L32665 10523
L32641 10511
L32594 10500
L32558 10500
L32511 10511
L32487 10523
L32463 10547
L32451 10583
L32451 10606
L32463 10642
L32475 10654
" />
<path d="M32700 10760
L32451 10760
L32451 10820
L32463 10855
L32487 10879
L32511 10891
L32558 10903
L32594 10903
L32641 10891
L32665 10879
L32688 10855
L32700 10820
L32700 10760
" />
<path d="M32700 11140
L32700 10998
" />
<path d="M32700 11069
L32451 11069
L32487 11045
L32511 11021
L32522 10998
" />
<path d="M32350 7944
L32101 7944
L32101 8004
L32113 8039
L32137 8063
L32161 8075
L32208 8087
L32244 8087
L32291 8075
L32315 8063
L32338 8039
L32350 8004
L32350 7944
" />
<path d="M32350 8193
L32101 8193
" />
<path d="M32338 8300
L32350 8336
L32350 8395
L32338 8419
L32327 8430
L32303 8442
L32279 8442
L32255 8430
L32244 8419
L32232 8395
L32220 8347
L32208 8324
L32196 8312
L32172 8300
L32149 8300
L32125 8312
L32113 8324
L32101 8347
L32101 8407
L32113 8442
" />
<path d="M32350 8549
L32101 8549
L32101 8644
L32113 8668
L32125 8679
L32149 8691
L32184 8691
L32208 8679
L32220 8668
L32232 8644
L32232 8549
" />
<path d="M32350 8917
L32350 8798
L32101 8798
" />
<path d="M32279 8988
L32279 9106
" />
<path d="M32350 8964
L32101 9047
L32350 9130
" />
<path d="M32232 9260
L32350 9260
" />
<path d="M32101 9177
L32232 9260
L32101 9343
" />
<path d="M32374 9367
L32374 9557
" />
<path d="M32350 9735
L32350 9616
L32101 9616
" />
<path d="M32327 9960
L32338 9948
L32350 9913
L32350 9889
L32338 9853
L32315 9830
L32291 9818
L32244 9806
L32208 9806
L32161 9818
L32137 9830
L32113 9853
L32101 9889
L32101 9913
L32113 9948
L32125 9960
" />
<path d="M32350 10067
L32101 10067
L32101 10126
L32113 10162
L32137 10185
L32161 10197
L32208 10209
L32244 10209
L32291 10197
L32315 10185
L32338 10162
L32350 10126
L32350 10067
" />
<path d="M32350 10446
L32350 10304
" />
<path d="M32350 10375
L32101 10375
L32137 10351
L32161 10328
L32172 10304
" />
<path d="M32101 10660
L32101 10612
L32113 10588
L32125 10577
L32161 10553
L32208 10541
L32303 10541
L32327 10553
L32338 10565
L32350 10588
L32350 10636
L32338 10660
L32327 10671
L32303 10683
L32244 10683
L32220 10671
L32208 10660
L32196 10636
L32196 10588
L32208 10565
L32220 10553
L32244 10541
" />
<path d="M32101 10837
L32101 10861
L32113 10885
L32125 10897
L32149 10909
L32196 10920
L32255 10920
L32303 10909
L32327 10897
L32338 10885
L32350 10861
L32350 10837
L32338 10814
L32327 10802
L32303 10790
L32255 10778
L32196 10778
L32149 10790
L32125 10802
L32113 10814
L32101 10837
" />
<path d="M32125 11015
L32113 11027
L32101 11051
L32101 11110
L32113 11134
L32125 11146
L32149 11158
L32172 11158
L32208 11146
L32350 11003
L32350 11158
" />
<path d="M32374 11205
L32374 11395
" />
<path d="M32350 11454
L32101 11454
" />
<path d="M32350 11596
L32208 11490
" />
<path d="M32101 11596
L32244 11454
" />
<path d="M32279 11691
L32279 11810
" />
<path d="M32350 11667
L32101 11750
L32350 11833
" />
<path d="M32374 11857
L32374 12047
" />
<path d="M32350 12248
L32232 12165
" />
<path d="M32350 12106
L32101 12106
L32101 12201
L32113 12225
L32125 12237
L32149 12248
L32184 12248
L32208 12237
L32220 12225
L32232 12201
L32232 12106
" />
<path d="M32350 12355
L32101 12355
" />
<path d="M32113 12604
L32101 12580
L32101 12545
L32113 12509
L32137 12486
L32161 12474
L32208 12462
L32244 12462
L32291 12474
L32315 12486
L32338 12509
L32350 12545
L32350 12569
L32338 12604
L32327 12616
L32244 12616
L32244 12569
" />
<path d="M32350 12723
L32101 12723
" />
<path d="M32220 12723
L32220 12865
" />
<path d="M32350 12865
L32101 12865
" />
<path d="M32101 12948
L32101 13090
" />
<path d="M32350 13019
L32101 13019
" />
</g>
<g style="fill:#009F9F; fill-opacity:0.0; 
stroke:#009F9F; stroke-width:120; stroke-opacity:1; 
stroke-linecap:round; stroke-linejoin:round;">
</g>
<g style="fill:#009F9F; fill-opacity:0.0; 
stroke:#009F9F; stroke-width:112.5; stroke-opacity:1; 
stroke-linecap:round; stroke-linejoin:round;">
<path d="M26157 21583
L26157 22150
L26178 22216
L26200 22250
L26242 22283
L26328 22283
L26371 22250
L26392 22216
L26414 22150
L26414 21583
" />
<path d="M26864 22283
L26607 22283
" />
<path d="M26735 22283
L26735 21583
L26692 21683
L26650 21750
L26607 21783
" />
</g>
<g style="fill:#009F9F; fill-opacity:0.0; 
stroke:#009F9F; stroke-width:120; stroke-opacity:1; 
stroke-linecap:round; stroke-linejoin:round;">
</g>
<g style="fill:#009F9F; fill-opacity:0.0; 
stroke:#009F9F; stroke-width:112.5; stroke-opacity:1; 
stroke-linecap:round; stroke-linejoin:round;">
<path d="M28192 23183
L28192 22483
L28364 22483
L28407 22516
L28428 22550
L28450 22616
L28450 22716
L28428 22783
L28407 22816
L28364 22850
L28192 22850
" />
<path d="M28642 23183
L28642 22483
" />
<path d="M29114 23116
L29092 23150
L29028 23183
L28985 23183
L28921 23150
L28878 23083
L28857 23016
L28835 22883
L28835 22783
L28857 22650
L28878 22583
L28921 22516
L28985 22483
L29028 22483
L29092 22516
L29114 22550
" />
<path d="M29542 23183
L29285 23183
" />
<path d="M29414 23183
L29414 22483
L29371 22583
L29328 22650
L29285 22683
" />
<path d="M29928 22483
L29842 22483
L29800 22516
L29778 22550
L29735 22650
L29714 22783
L29714 23050
L29735 23116
L29757 23150
L29800 23183
L29885 23183
L29928 23150
L29950 23116
L29971 23050
L29971 22883
L29950 22816
L29928 22783
L29885 22750
L29800 22750
L29757 22783
L29735 22816
L29714 22883
" />
<path d="M30314 22816
L30164 22816
" />
<path d="M30164 23183
L30164 22483
L30378 22483
" />
<path d="M30742 22483
L30657 22483
L30614 22516
L30592 22550
L30550 22650
L30528 22783
L30528 23050
L30550 23116
L30571 23150
L30614 23183
L30700 23183
L30742 23150
L30764 23116
L30785 23050
L30785 22883
L30764 22816
L30742 22783
L30700 22750
L30614 22750
L30571 22783
L30550 22816
L30528 22883
" />
<path d="M30957 22550
L30978 22516
L31021 22483
L31128 22483
L31171 22516
L31192 22550
L31214 22616
L31214 22683
L31192 22783
L30935 23183
L31214 23183
" />
<path d="M31471 22783
L31428 22750
L31407 22716
L31385 22650
L31385 22616
L31407 22550
L31428 22516
L31471 22483
L31557 22483
L31600 22516
L31621 22550
L31642 22616
L31642 22650
L31621 22716
L31600 22750
L31557 22783
L31471 22783
L31428 22816
L31407 22850
L31385 22916
L31385 23050
L31407 23116
L31428 23150
L31471 23183
L31557 23183
L31600 23150
L31621 23116
L31642 23050
L31642 22916
L31621 22850
L31600 22816
L31557 22783
" />
<path d="M31814 22983
L32028 22983
" />
<path d="M31771 23183
L31921 22483
L32071 23183
" />
</g>
<g style="fill:#009F9F; fill-opacity:0.0; 
stroke:#009F9F; stroke-width:120; stroke-opacity:1; 
stroke-linecap:round; stroke-linejoin:round;">
</g>
<g style="fill:#9F009F; fill-opacity:0.0; 
stroke:#9F009F; stroke-width:80; stroke-opacity:1; 
stroke-linecap:round; stroke-linejoin:round;">
<path d="M29566 22623
L29585 22642
L29642 22661
L29680 22661
L29738 22642
L29776 22604
L29795 22566
L29814 22490
L29814 22433
L29795 22357
L29776 22319
L29738 22280
L29680 22261
L29642 22261
L29585 22280
L29566 22300
" />
<path d="M29185 22661
L29414 22661
" />
<path d="M29299 22661
L29299 22261
L29338 22319
L29376 22357
L29414 22376
" />
<path d="M54123 22433
L54142 22414
L54161 22357
L54161 22319
L54142 22261
L54104 22223
L54066 22204
L53990 22185
L53933 22185
L53857 22204
L53819 22223
L53780 22261
L53761 22319
L53761 22357
L53780 22414
L53800 22433
" />
<path d="M53800 22585
L53780 22604
L53761 22642
L53761 22738
L53780 22776
L53800 22795
L53838 22814
L53876 22814
L53933 22795
L54161 22566
L54161 22814
" />
</g>
<g style="fill:#009F9F; fill-opacity:0.0; 
stroke:#009F9F; stroke-width:80; stroke-opacity:1; 
stroke-linecap:round; stroke-linejoin:round;">
<path d="M36623 22066
L36642 22085
L36661 22142
L36661 22180
L36642 22238
L36604 22276
L36566 22295
L36490 22314
L36433 22314
L36357 22295
L36319 22276
L36280 22238
L36261 22180
L36261 22142
L36280 22085
L36300 22066
" />
<path d="M36261 21933
L36261 21685
L36414 21819
L36414 21761
L36433 21723
L36452 21704
L36490 21685
L36585 21685
L36623 21704
L36642 21723
L36661 21761
L36661 21876
L36642 21914
L36623 21933
" />
<path d="M35623 22066
L35642 22085
L35661 22142
L35661 22180
L35642 22238
L35604 22276
L35566 22295
L35490 22314
L35433 22314
L35357 22295
L35319 22276
L35280 22238
L35261 22180
L35261 22142
L35280 22085
L35300 22066
" />
<path d="M35395 21723
L35661 21723
" />
<path d="M35242 21819
L35528 21914
L35528 21666
" />
</g>
<g style="fill:#9F009F; fill-opacity:0.0; 
stroke:#9F009F; stroke-width:120; stroke-opacity:1; 
stroke-linecap:round; stroke-linejoin:round;">
</g>
<g style="fill:#9F009F; fill-opacity:0.0; 
stroke:#9F009F; stroke-width:100; stroke-opacity:1; 
stroke-linecap:round; stroke-linejoin:round;">
<path d="M22295 22742
L22295 22142
L22199 22142
L22142 22171
L22104 22228
L22085 22285
L22066 22400
L22066 22485
L22085 22600
L22104 22657
L22142 22714
L22199 22742
L22295 22742
" />
<path d="M21685 22742
L21914 22742
" />
<path d="M21799 22742
L21799 22142
L21838 22228
L21876 22285
L21914 22314
" />
</g>
<g style="fill:#9F009F; fill-opacity:0.0; 
stroke:#9F009F; stroke-width:120; stroke-opacity:1; 
stroke-linecap:round; stroke-linejoin:round;">
</g>
<g style="fill:#9F009F; fill-opacity:0.0; 
stroke:#9F009F; stroke-width:80; stroke-opacity:1; 
stroke-linecap:round; stroke-linejoin:round;">
<path d="M59023 15252
L58966 15271
L58947 15290
L58928 15328
L58928 15385
L58947 15423
L58966 15442
L59004 15461
L59157 15461
L59157 15061
L59023 15061
L58985 15080
L58966 15100
L58947 15138
L58947 15176
L58966 15214
L58985 15233
L59023 15252
L59157 15252
" />
<path d="M58814 15061
L58585 15061
" />
<path d="M58699 15461
L58699 15061
" />
<path d="M58452 15461
L58452 15061
L58223 15461
L58223 15061
" />
<path d="M57957 15061
L57919 15061
L57880 15080
L57861 15100
L57842 15138
L57823 15214
L57823 15309
L57842 15385
L57861 15423
L57880 15442
L57919 15461
L57957 15461
L57995 15442
L58014 15423
L58033 15385
L58052 15309
L58052 15214
L58033 15138
L58014 15100
L57995 15080
L57957 15061
" />
<path d="M60871 14742
L60814 14761
L60719 14761
L60680 14742
L60661 14723
L60642 14685
L60642 14647
L60661 14609
L60680 14590
L60719 14571
L60795 14552
L60833 14533
L60852 14514
L60871 14476
L60871 14438
L60852 14400
L60833 14380
L60795 14361
L60700 14361
L60642 14380
" />
<path d="M60509 14361
L60414 14761
L60338 14476
L60261 14761
L60166 14361
" />
<path d="M60109 14800
L59804 14800
" />
<path d="M59709 14761
L59709 14361
L59557 14361
L59519 14380
L59500 14400
L59480 14438
L59480 14495
L59500 14533
L59519 14552
L59557 14571
L59709 14571
" />
<path d="M59309 14361
L59309 14685
L59290 14723
L59271 14742
L59233 14761
L59157 14761
L59119 14742
L59100 14723
L59080 14685
L59080 14361
" />
<path d="M58909 14742
L58852 14761
L58757 14761
L58719 14742
L58700 14723
L58680 14685
L58680 14647
L58700 14609
L58719 14590
L58757 14571
L58833 14552
L58871 14533
L58890 14514
L58909 14476
L58909 14438
L58890 14400
L58871 14380
L58833 14361
L58738 14361
L58680 14380
" />
<path d="M58509 14761
L58509 14361
" />
<path d="M58509 14552
L58280 14552
" />
<path d="M58280 14761
L58280 14361
" />
<path d="M58185 14800
L57880 14800
" />
<path d="M57804 14742
L57747 14761
L57652 14761
L57614 14742
L57595 14723
L57576 14685
L57576 14647
L57595 14609
L57614 14590
L57652 14571
L57728 14552
L57766 14533
L57785 14514
L57804 14476
L57804 14438
L57785 14400
L57766 14380
L57728 14361
L57633 14361
L57576 14380
" />
<path d="M57404 14761
L57404 14361
L57271 14647
L57138 14361
L57138 14761
" />
<path d="M56966 14647
L56776 14647
" />
<path d="M57004 14761
L56871 14361
L56738 14761
" />
<path d="M56414 14761
L56604 14761
L56604 14361
" />
<path d="M56090 14761
L56280 14761
L56280 14361
" />
<path d="M51523 15252
L51466 15271
L51447 15290
L51428 15328
L51428 15385
L51447 15423
L51466 15442
L51504 15461
L51657 15461
L51657 15061
L51523 15061
L51485 15080
L51466 15100
L51447 15138
L51447 15176
L51466 15214
L51485 15233
L51523 15252
L51657 15252
" />
<path d="M51314 15061
L51085 15061
" />
<path d="M51199 15461
L51199 15061
" />
<path d="M50952 15461
L50952 15061
L50723 15461
L50723 15061
" />
<path d="M50323 15461
L50552 15461
" />
<path d="M50438 15461
L50438 15061
L50476 15119
L50514 15157
L50552 15176
" />
<path d="M53371 14742
L53314 14761
L53219 14761
L53180 14742
L53161 14723
L53142 14685
L53142 14647
L53161 14609
L53180 14590
L53219 14571
L53295 14552
L53333 14533
L53352 14514
L53371 14476
L53371 14438
L53352 14400
L53333 14380
L53295 14361
L53200 14361
L53142 14380
" />
<path d="M53009 14361
L52914 14761
L52838 14476
L52761 14761
L52666 14361
" />
<path d="M52609 14800
L52304 14800
" />
<path d="M52209 14761
L52209 14361
L52057 14361
L52019 14380
L52000 14400
L51980 14438
L51980 14495
L52000 14533
L52019 14552
L52057 14571
L52209 14571
" />
<path d="M51809 14361
L51809 14685
L51790 14723
L51771 14742
L51733 14761
L51657 14761
L51619 14742
L51600 14723
L51580 14685
L51580 14361
" />
<path d="M51409 14742
L51352 14761
L51257 14761
L51219 14742
L51200 14723
L51180 14685
L51180 14647
L51200 14609
L51219 14590
L51257 14571
L51333 14552
L51371 14533
L51390 14514
L51409 14476
L51409 14438
L51390 14400
L51371 14380
L51333 14361
L51238 14361
L51180 14380
" />
<path d="M51009 14761
L51009 14361
" />
<path d="M51009 14552
L50780 14552
" />
<path d="M50780 14761
L50780 14361
" />
<path d="M50685 14800
L50380 14800
" />
<path d="M50304 14742
L50247 14761
L50152 14761
L50114 14742
L50095 14723
L50076 14685
L50076 14647
L50095 14609
L50114 14590
L50152 14571
L50228 14552
L50266 14533
L50285 14514
L50304 14476
L50304 14438
L50285 14400
L50266 14380
L50228 14361
L50133 14361
L50076 14380
" />
<path d="M49904 14761
L49904 14361
L49771 14647
L49638 14361
L49638 14761
" />
<path d="M49466 14647
L49276 14647
" />
<path d="M49504 14761
L49371 14361
L49238 14761
" />
<path d="M48914 14761
L49104 14761
L49104 14361
" />
<path d="M48590 14761
L48780 14761
L48780 14361
" />
<path d="M59023 22752
L58966 22771
L58947 22790
L58928 22828
L58928 22885
L58947 22923
L58966 22942
L59004 22961
L59157 22961
L59157 22561
L59023 22561
L58985 22580
L58966 22600
L58947 22638
L58947 22676
L58966 22714
L58985 22733
L59023 22752
L59157 22752
" />
<path d="M58814 22561
L58585 22561
" />
<path d="M58699 22961
L58699 22561
" />
<path d="M58452 22961
L58452 22561
L58223 22961
L58223 22561
" />
<path d="M58052 22600
L58033 22580
L57995 22561
L57900 22561
L57861 22580
L57842 22600
L57823 22638
L57823 22676
L57842 22733
L58071 22961
L57823 22961
" />
<path d="M60871 22242
L60814 22261
L60719 22261
L60680 22242
L60661 22223
L60642 22185
L60642 22147
L60661 22109
L60680 22090
L60719 22071
L60795 22052
L60833 22033
L60852 22014
L60871 21976
L60871 21938
L60852 21900
L60833 21880
L60795 21861
L60700 21861
L60642 21880
" />
<path d="M60509 21861
L60414 22261
L60338 21976
L60261 22261
L60166 21861
" />
<path d="M60109 22300
L59804 22300
" />
<path d="M59709 22261
L59709 21861
L59557 21861
L59519 21880
L59500 21900
L59480 21938
L59480 21995
L59500 22033
L59519 22052
L59557 22071
L59709 22071
" />
<path d="M59309 21861
L59309 22185
L59290 22223
L59271 22242
L59233 22261
L59157 22261
L59119 22242
L59100 22223
L59080 22185
L59080 21861
" />
<path d="M58909 22242
L58852 22261
L58757 22261
L58719 22242
L58700 22223
L58680 22185
L58680 22147
L58700 22109
L58719 22090
L58757 22071
L58833 22052
L58871 22033
L58890 22014
L58909 21976
L58909 21938
L58890 21900
L58871 21880
L58833 21861
L58738 21861
L58680 21880
" />
<path d="M58509 22261
L58509 21861
" />
<path d="M58509 22052
L58280 22052
" />
<path d="M58280 22261
L58280 21861
" />
<path d="M58185 22300
L57880 22300
" />
<path d="M57804 22242
L57747 22261
L57652 22261
L57614 22242
L57595 22223
L57576 22185
L57576 22147
L57595 22109
L57614 22090
L57652 22071
L57728 22052
L57766 22033
L57785 22014
L57804 21976
L57804 21938
L57785 21900
L57766 21880
L57728 21861
L57633 21861
L57576 21880
" />
<path d="M57404 22261
L57404 21861
L57271 22147
L57138 21861
L57138 22261
" />
<path d="M56966 22147
L56776 22147
" />
<path d="M57004 22261
L56871 21861
L56738 22261
" />
<path d="M56414 22261
L56604 22261
L56604 21861
" />
<path d="M56090 22261
L56280 22261
L56280 21861
" />
<path d="M51771 22961
L51904 22771
" />
<path d="M51999 22961
L51999 22561
L51847 22561
L51809 22580
L51790 22600
L51771 22638
L51771 22695
L51790 22733
L51809 22752
L51847 22771
L51999 22771
" />
<path d="M51599 22752
L51466 22752
" />
<path d="M51409 22961
L51599 22961
L51599 22561
L51409 22561
" />
<path d="M51257 22942
L51199 22961
L51104 22961
L51066 22942
L51047 22923
L51028 22885
L51028 22847
L51047 22809
L51066 22790
L51104 22771
L51180 22752
L51219 22733
L51238 22714
L51257 22676
L51257 22638
L51238 22600
L51219 22580
L51180 22561
L51085 22561
L51028 22580
" />
<path d="M50857 22752
L50723 22752
" />
<path d="M50666 22961
L50857 22961
L50857 22561
L50666 22561
" />
<path d="M50552 22561
L50323 22561
" />
<path d="M50438 22961
L50438 22561
" />
<path d="M49980 22961
L50209 22961
" />
<path d="M50095 22961
L50095 22561
L50133 22619
L50171 22657
L50209 22676
" />
<path d="M53371 22242
L53314 22261
L53219 22261
L53180 22242
L53161 22223
L53142 22185
L53142 22147
L53161 22109
L53180 22090
L53219 22071
L53295 22052
L53333 22033
L53352 22014
L53371 21976
L53371 21938
L53352 21900
L53333 21880
L53295 21861
L53200 21861
L53142 21880
" />
<path d="M53009 21861
L52914 22261
L52838 21976
L52761 22261
L52666 21861
" />
<path d="M52609 22300
L52304 22300
" />
<path d="M52209 22261
L52209 21861
L52057 21861
L52019 21880
L52000 21900
L51980 21938
L51980 21995
L52000 22033
L52019 22052
L52057 22071
L52209 22071
" />
<path d="M51809 21861
L51809 22185
L51790 22223
L51771 22242
L51733 22261
L51657 22261
L51619 22242
L51600 22223
L51580 22185
L51580 21861
" />
<path d="M51409 22242
L51352 22261
L51257 22261
L51219 22242
L51200 22223
L51180 22185
L51180 22147
L51200 22109
L51219 22090
L51257 22071
L51333 22052
L51371 22033
L51390 22014
L51409 21976
L51409 21938
L51390 21900
L51371 21880
L51333 21861
L51238 21861
L51180 21880
" />
<path d="M51009 22261
L51009 21861
" />
<path d="M51009 22052
L50780 22052
" />
<path d="M50780 22261
L50780 21861
" />
<path d="M50685 22300
L50380 22300
" />
<path d="M50304 22242
L50247 22261
L50152 22261
L50114 22242
L50095 22223
L50076 22185
L50076 22147
L50095 22109
L50114 22090
L50152 22071
L50228 22052
L50266 22033
L50285 22014
L50304 21976
L50304 21938
L50285 21900
L50266 21880
L50228 21861
L50133 21861
L50076 21880
" />
<path d="M49904 22261
L49904 21861
L49771 22147
L49638 21861
L49638 22261
" />
<path d="M49466 22147
L49276 22147
" />
<path d="M49504 22261
L49371 21861
L49238 22261
" />
<path d="M48914 22261
L49104 22261
L49104 21861
" />
<path d="M48590 22261
L48780 22261
L48780 21861
" />
</g>
<g style="fill:#009F9F; fill-opacity:0.0; 
stroke:#009F9F; stroke-width:80; stroke-opacity:1; 
stroke-linecap:round; stroke-linejoin:round;">
<path d="M45661 16295
L45261 16295
L45261 16142
L45280 16104
L45300 16085
L45338 16066
L45395 16066
L45433 16085
L45452 16104
L45471 16142
L45471 16295
" />
<path d="M45261 15933
L45261 15685
L45414 15819
L45414 15761
L45433 15723
L45452 15704
L45490 15685
L45585 15685
L45623 15704
L45642 15723
L45661 15761
L45661 15876
L45642 15914
L45623 15933
" />
<path d="M48161 16295
L47761 16295
L47761 16142
L47780 16104
L47800 16085
L47838 16066
L47895 16066
L47933 16085
L47952 16104
L47971 16142
L47971 16295
" />
<path d="M47895 15723
L48161 15723
" />
<path d="M47742 15819
L48028 15914
L48028 15666
" />
<circle cx="31000" cy="16500" r="1200" /> 
</g>
<g style="fill:#009F9F; fill-opacity:0.0; 
stroke:#009F9F; stroke-width:120; stroke-opacity:1; 
stroke-linecap:round; stroke-linejoin:round;">
<path d="M30400 17550
L30200 17850
" />
<path d="M30200 17850
L30000 17700
" />
<path d="M30000 17700
L30200 17400
" />
<path d="M20000 19500
L20000 18500
" />
<path d="M20000 18500
L29000 18500
" />
<path d="M29000 18500
L29000 19500
" />
<path d="M20000 19500
L29000 19500
" />
<path d="M28000 19500
L28000 18500
" />
<path d="M39000 18500
L39000 19500
" />
<path d="M39000 19500
L30000 19500
" />
<path d="M30000 19500
L30000 18500
" />
<path d="M39000 18500
L30000 18500
" />
<path d="M31000 18500
L31000 19500
" />
</g>
<g style="fill:#009F9F; fill-opacity:0.0; 
stroke:#009F9F; stroke-width:59.0551; stroke-opacity:1; 
stroke-linecap:round; stroke-linejoin:round;">
<path d="M27000 13500
L25000 13500
" />
<path d="M26000 12500
L26000 14500
" />
<circle cx="26000" cy="13500" r="1000" /> 
<path d="M27500 15500
L23500 15500
" />
<path d="M23500 15500
L23500 11500
" />
<path d="M23500 11500
L27500 11500
" />
<path d="M27500 11500
L27500 15500
" />
</g>
<g style="fill:#009F9F; fill-opacity:0.0; 
stroke:#009F9F; stroke-width:100; stroke-opacity:1; 
stroke-linecap:round; stroke-linejoin:round;">
<path d="M44000 23500
L44000 19500
" />
<path d="M45000 23500
L45000 19500
" />
<path d="M45000 19500
L44000 19500
" />
<path d="M44000 23500
L45000 23500
" />
</g>
<g style="fill:#009F9F; fill-opacity:0.0; 
stroke:#009F9F; stroke-width:60; stroke-opacity:1; 
stroke-linecap:round; stroke-linejoin:round;">
<path d="M28000 27500
L28000 26500
" />
<path d="M28000 26500
L30000 26500
" />
<path d="M30000 26500
L30000 27500
" />
<path d="M30000 27500
L28000 27500
" />
</g>
<g style="fill:#9F009F; fill-opacity:0.0; 
stroke:#9F009F; stroke-width:59.0551; stroke-opacity:1; 
stroke-linecap:round; stroke-linejoin:round;">
<path d="M32000 11000
L16000 11000
" />
<path d="M16000 11000
L16000 10000
" />
<path d="M16000 10000
L32000 10000
" />
</g>
<g style="fill:#9F009F; fill-opacity:0.0; 
stroke:#9F009F; stroke-width:59; stroke-opacity:1; 
stroke-linecap:round; stroke-linejoin:round;">
<path d="M32000 11000
L32000 10000
" />
</g>
<g style="fill:#009F9F; fill-opacity:0.0; 
stroke:#009F9F; stroke-width:150; stroke-opacity:1; 
stroke-linecap:round; stroke-linejoin:round;">
<path d="M24500 22000
L25000 22000
" />
<path d="M25000 22000
L25000 23000
" />
<path d="M25000 23000
L24500 23000
" />
<path d="M24500 21500
L34500 21500
" />
<path d="M34500 21500
L34500 23500
" />
<path d="M34500 23500
L24500 23500
" />
<path d="M24500 23500
L24500 21500
" />
</g>
<g style="fill:#9F009F; fill-opacity:0.0; 
stroke:#9F009F; stroke-width:120; stroke-opacity:1; 
stroke-linecap:round; stroke-linejoin:round;">
<path d="M28100 22900
L30900 22900
" />
<path d="M30900 22900
L30900 22100
" />
<path d="M30900 22100
L28100 22100
" />
<path d="M28100 22100
L28100 22900
" />
<path d="M28100 22700
L28300 22900
" />
<path d="M54400 23900
L54400 21100
" />
<path d="M54400 21100
L53600 21100
" />
<path d="M53600 21100
L53600 23900
" />
<path d="M53600 23900
L54400 23900
" />
<path d="M54200 23900
L54400 23700
" />
</g>
<g style="fill:#009F9F; fill-opacity:0.0; 
stroke:#009F9F; stroke-width:120; stroke-opacity:1; 
stroke-linecap:round; stroke-linejoin:round;">
<path d="M36900 20600
L36900 23400
" />
<path d="M36900 23400
L36100 23400
" />
<path d="M36100 23400
L36100 20600
" />
<path d="M36100 20600
L36900 20600
" />
<path d="M36700 20600
L36900 20800
" />
<path d="M35900 20600
L35900 23400
" />
<path d="M35900 23400
L35100 23400
" />
<path d="M35100 23400
L35100 20600
" />
<path d="M35100 20600
L35900 20600
" />
<path d="M35700 20600
L35900 20800
" />
</g>
<g style="fill:#9F009F; fill-opacity:0.0; 
stroke:#9F009F; stroke-width:120; stroke-opacity:1; 
stroke-linecap:round; stroke-linejoin:round;">
<path d="M24500 22500
L24000 22500
" />
<path d="M24000 22500
L24000 23000
" />
<path d="M24000 23000
L20000 23000
" />
<path d="M20000 23000
L20000 22500
" />
<path d="M20000 22500
L19500 22500
" />
<path d="M20000 22500
L20000 22000
" />
<path d="M20000 22000
L24000 22000
" />
<path d="M24000 22000
L24000 22500
" />
<path d="M23500 23000
L23500 22000
" />
<path d="M23600 23000
L23600 22000
" />
</g>
<g style="fill:#9F009F; fill-opacity:0.0; 
stroke:#9F009F; stroke-width:50; stroke-opacity:1; 
stroke-linecap:round; stroke-linejoin:round;">
<circle cx="58500" cy="15000" r="1000" /> 
<path d="M57000 16500
L60000 16500
" />
<path d="M60000 16500
L60000 13500
" />
<path d="M60000 13500
L57000 13500
" />
<path d="M57000 16500
L57000 13500
" />
<circle cx="51000" cy="15000" r="1000" /> 
<path d="M49500 16500
L52500 16500
" />
<path d="M52500 16500
L52500 13500
" />
<path d="M52500 13500
L49500 13500
" />
<path d="M49500 16500
L49500 13500
" />
<circle cx="58500" cy="22500" r="1000" /> 
<path d="M57000 24000
L60000 24000
" />
<path d="M60000 24000
L60000 21000
" />
<path d="M60000 21000
L57000 21000
" />
<path d="M57000 24000
L57000 21000
" />
<circle cx="51000" cy="22500" r="1000" /> 
<path d="M49500 24000
L52500 24000
" />
<path d="M52500 24000
L52500 21000
" />
<path d="M52500 21000
L49500 21000
" />
<path d="M49500 24000
L49500 21000
" />
</g>
<g style="fill:#009F9F; fill-opacity:0.0; 
stroke:#009F9F; stroke-width:120; stroke-opacity:1; 
stroke-linecap:round; stroke-linejoin:round;">
<path d="M45000 13500
L44000 13500
" />
<path d="M44000 18500
L45000 18500
" />
<path d="M45000 13500
L45000 18500
" />
<path d="M44000 18500
L44000 13500
" />
<path d="M47500 13500
L46500 13500
" />
<path d="M46500 18500
L47500 18500
" />
<path d="M47500 13500
L47500 18500
" />
<path d="M46500 18500
L46500 13500
" />
</g>
<g style="fill:#7F7F00; fill-opacity:0.0; 
stroke:#7F7F00; stroke-width:39.3701; stroke-opacity:1; 
stroke-linecap:round; stroke-linejoin:round;">
</g>
<g style="fill:#7F7F00; fill-opacity:1.0; 
stroke:#7F7F00; stroke-width:39.3701; stroke-opacity:1; 
stroke-linecap:round; stroke-linejoin:round;">
<circle cx="31500" cy="16500" r="280.315" /> 
<circle cx="31000" cy="16000" r="280.315" /> 
<circle cx="31000" cy="17000" r="280.315" /> 
<polyline style="fill-rule:evenodd;"
points="28755,18744
28755,19255
28244,19255
28244,18744
28755,18744
" /> 
<circle cx="27500" cy="19000" r="255.315" /> 
<circle cx="26500" cy="19000" r="255.315" /> 
<circle cx="25500" cy="19000" r="255.315" /> 
<circle cx="24500" cy="19000" r="255.315" /> 
<circle cx="23500" cy="19000" r="255.315" /> 
<circle cx="22500" cy="19000" r="255.315" /> 
<circle cx="21500" cy="19000" r="255.315" /> 
<circle cx="20500" cy="19000" r="255.315" /> 
<polyline style="fill-rule:evenodd;"
points="30244,19255
30244,18744
30755,18744
30755,19255
30244,19255
" /> 
<circle cx="31500" cy="19000" r="255.315" /> 
<circle cx="32500" cy="19000" r="255.315" /> 
<circle cx="33500" cy="19000" r="255.315" /> 
<circle cx="34500" cy="19000" r="255.315" /> 
<circle cx="35500" cy="19000" r="255.315" /> 
<circle cx="36500" cy="19000" r="255.315" /> 
<circle cx="37500" cy="19000" r="255.315" /> 
<circle cx="38500" cy="19000" r="255.315" /> 
<circle cx="23500" cy="12500" r="275.591" /> 
<circle cx="27500" cy="13500" r="275.591" /> 
<circle cx="23500" cy="14500" r="275.591" /> 
<polyline style="fill-rule:evenodd;"
points="44219,19719
44780,19719
44780,20280
44219,20280
44219,19719
" /> 
<circle cx="44500" cy="21000" r="280.315" /> 
<circle cx="44500" cy="22000" r="280.315" /> 
<circle cx="44500" cy="23000" r="280.315" /> 
<polyline style="fill-rule:evenodd;"
points="28219,27280
28219,26719
28780,26719
28780,27280
28219,27280
" /> 
<circle cx="29500" cy="27000" r="280.315" /> 
<polyline style="fill-rule:evenodd;"
points="31780,10219
31780,10780
31219,10780
31219,10219
31780,10219
" /> 
<circle cx="30500" cy="10500" r="280.315" /> 
<circle cx="21500" cy="10500" r="280.315" /> 
<circle cx="28500" cy="10500" r="280.315" /> 
<circle cx="19500" cy="10500" r="280.315" /> 
<circle cx="26500" cy="10500" r="280.315" /> 
<circle cx="17500" cy="10500" r="280.315" /> 
<circle cx="24500" cy="10500" r="280.315" /> 
<circle cx="22500" cy="10500" r="280.315" /> 
<circle cx="20500" cy="10500" r="280.315" /> 
<circle cx="18500" cy="10500" r="280.315" /> 
<circle cx="16500" cy="10500" r="280.315" /> 
<circle cx="29500" cy="10500" r="280.315" /> 
<circle cx="27500" cy="10500" r="280.315" /> 
<circle cx="25500" cy="10500" r="280.315" /> 
<circle cx="23500" cy="10500" r="280.315" /> 
<polyline style="fill-rule:evenodd;"
points="25209,24430
25209,23569
25790,23569
25790,24430
25209,24430
" /> 
</g>
<g style="fill:#7F7F00; fill-opacity:1.0; 
stroke:#7F7F00; stroke-width:620; stroke-opacity:1; 
stroke-linecap:round; stroke-linejoin:round;">
<path d="M26500 23860
L26500 24140
" />
<path d="M27500 23860
L27500 24140
" />
<path d="M28500 23860
L28500 24140
" />
<path d="M29500 23860
L29500 24140
" />
<path d="M30500 23860
L30500 24140
" />
<path d="M31500 23860
L31500 24140
" />
<path d="M32500 23860
L32500 24140
" />
<path d="M33500 23860
L33500 24140
" />
<path d="M33500 20860
L33500 21140
" />
<path d="M32500 20860
L32500 21140
" />
<path d="M31500 20860
L31500 21140
" />
<path d="M30500 20860
L30500 21140
" />
<path d="M29500 20860
L29500 21140
" />
<path d="M28500 20860
L28500 21140
" />
<path d="M27500 20860
L27500 21140
" />
<path d="M26500 20860
L26500 21140
" />
<path d="M25500 20860
L25500 21140
" />
</g>
<g style="fill:#7F7F00; fill-opacity:1.0; 
stroke:#7F7F00; stroke-width:39.3701; stroke-opacity:1; 
stroke-linecap:round; stroke-linejoin:round;">
<circle cx="28500" cy="22500" r="255.315" /> 
<circle cx="30500" cy="22500" r="255.315" /> 
<circle cx="54000" cy="23500" r="255.315" /> 
<circle cx="54000" cy="21500" r="255.315" /> 
<circle cx="36500" cy="21000" r="255.315" /> 
<circle cx="36500" cy="23000" r="255.315" /> 
<circle cx="35500" cy="21000" r="255.315" /> 
<circle cx="35500" cy="23000" r="255.315" /> 
<circle cx="19500" cy="22500" r="330.315" /> 
<polyline style="fill-rule:evenodd;"
points="24169,22830
24169,22169
24830,22169
24830,22830
24169,22830
" /> 
<circle cx="60000" cy="16000" r="255.315" /> 
<circle cx="60000" cy="14000" r="255.315" /> 
<circle cx="57000" cy="16000" r="255.315" /> 
<circle cx="57000" cy="14000" r="255.315" /> 
<circle cx="52500" cy="16000" r="255.315" /> 
<circle cx="52500" cy="14000" r="255.315" /> 
<circle cx="49500" cy="16000" r="255.315" /> 
<circle cx="49500" cy="14000" r="255.315" /> 
<circle cx="60000" cy="23500" r="255.315" /> 
<circle cx="60000" cy="21500" r="255.315" /> 
<circle cx="57000" cy="23500" r="255.315" /> 
<circle cx="57000" cy="21500" r="255.315" /> 
<circle cx="52500" cy="23500" r="255.315" /> 
<circle cx="52500" cy="21500" r="255.315" /> 
<circle cx="49500" cy="23500" r="255.315" /> 
<circle cx="49500" cy="21500" r="255.315" /> 
<polyline style="fill-rule:evenodd;"
points="44219,13719
44780,13719
44780,14280
44219,14280
44219,13719
" /> 
<circle cx="44500" cy="15000" r="280.315" /> 
<circle cx="44500" cy="16000" r="280.315" /> 
<circle cx="44500" cy="17000" r="280.315" /> 
<circle cx="44500" cy="18000" r="280.315" /> 
<polyline style="fill-rule:evenodd;"
points="46719,13719
47280,13719
47280,14280
46719,14280
46719,13719
" /> 
<circle cx="47000" cy="15000" r="280.315" /> 
<circle cx="47000" cy="16000" r="280.315" /> 
<circle cx="47000" cy="17000" r="280.315" /> 
<circle cx="47000" cy="18000" r="280.315" /> 
</g>
<g style="fill:#BFBFBF; fill-opacity:1.0; 
stroke:#BFBFBF; stroke-width:39.3701; stroke-opacity:1; 
stroke-linecap:round; stroke-linejoin:round;">
<circle cx="28500" cy="12000" r="155.315" /> 
<circle cx="31500" cy="12000" r="155.315" /> 
</g>
<g style="fill:#009F00; fill-opacity:1.0; 
stroke:#009F00; stroke-width:100; stroke-opacity:1; 
stroke-linecap:round; stroke-linejoin:round;">
<path d="M31500 19000
L31500 19500
" />
<path d="M30500 20500
L30500 21000
" />
<path d="M31500 19500
L30500 20500
" />
<path d="M31500 19000
L31500 18500
" />
<path d="M31500 19000
L31500 16500
" />
<path d="M31500 19000
L31500 19000
" />
<path d="M34500 19000
L34500 16000
" />
<path d="M43000 17000
L44500 17000
" />
<path d="M42000 16000
L43000 17000
" />
<path d="M34500 16000
L42000 16000
" />
<path d="M33500 21000
L34500 21000
" />
<path d="M34500 21000
L34500 19000
" />
<path d="M34500 19000
L34500 19000
" />
<path d="M33500 15000
L42500 15000
" />
<path d="M43500 16000
L44500 16000
" />
<path d="M42500 15000
L43500 16000
" />
<path d="M33500 19000
L33500 15000
" />
<path d="M33500 19000
L33500 19500
" />
<path d="M32500 20500
L32500 21000
" />
<path d="M33500 19500
L32500 20500
" />
<path d="M33500 19000
L33500 19000
" />
<path d="M32500 19000
L32500 14000
" />
<path d="M32500 14000
L43500 14000
" />
<path d="M43500 14000
L44500 15000
" />
<path d="M31500 21000
L31500 20500
" />
<path d="M31500 20500
L32500 19500
" />
<path d="M32500 19500
L32500 19000
" />
<path d="M32500 14000
L43500 14000
" />
<path d="M43500 14000
L44500 15000
" />
<path d="M32500 18500
L32500 14000
" />
<path d="M31500 20500
L32500 19500
" />
<path d="M32500 19500
L32500 19000
" />
<path d="M32500 19500
L31500 20500
" />
<path d="M32500 19000
L32500 19000
" />
<path d="M24000 16500
L24500 17000
" />
<path d="M25500 21000
L24500 20000
" />
<path d="M24000 16500
L19500 16500
" />
<path d="M19500 16500
L19500 10500
" />
<path d="M24500 20000
L24500 19000
" />
<path d="M24500 19000
L24500 18500
" />
<path d="M24500 19000
L24500 17000
" />
<path d="M24500 19000
L24500 19000
" />
<path d="M23500 17000
L18500 17000
" />
<path d="M18500 17000
L18500 10500
" />
<path d="M25500 24000
L23500 24000
" />
<path d="M23500 24000
L23500 19000
" />
<path d="M23500 19000
L23500 17000
" />
<path d="M23500 19000
L23500 19000
" />
<path d="M22500 17500
L17500 17500
" />
<path d="M17500 17500
L17500 10500
" />
<path d="M26500 24000
L26500 25000
" />
<path d="M23000 25000
L26500 25000
" />
<path d="M22500 25000
L23000 25000
" />
<path d="M22500 25000
L22500 19000
" />
<path d="M22500 19000
L22500 17500
" />
<path d="M26500 24000
L26500 24500
" />
<path d="M21500 18000
L16500 18000
" />
<path d="M16500 18000
L16500 10500
" />
<path d="M27500 24000
L27500 25500
" />
<path d="M22000 25500
L27500 25500
" />
<path d="M21500 25500
L22000 25500
" />
<path d="M21500 25500
L21500 19000
" />
<path d="M21500 18000
L21500 19000
" />
<path d="M16500 16000
L16500 15000
" />
<path d="M16500 15000
L16500 10500
" />
<path d="M24500 12500
L24500 16000
" />
<path d="M24500 16000
L25500 17000
" />
<path d="M24500 11500
L24500 12500
" />
<path d="M25500 17000
L25500 19000
" />
<path d="M26500 21000
L26500 20000
" />
<path d="M26500 20000
L25500 19000
" />
<path d="M25500 19000
L25500 18500
" />
<path d="M24500 11500
L24500 10500
" />
<path d="M25500 19000
L25500 19000
" />
<path d="M31000 16000
L30500 15500
" />
<path d="M30500 15500
L30500 10500
" />
<path d="M20000 27000
L19500 27000
" />
<path d="M19500 27000
L19500 22500
" />
<path d="M20000 27000
L22500 27000
" />
<path d="M22500 27000
L28500 27000
" />
<path d="M39000 19000
L39000 26000
" />
<path d="M38500 19000
L39000 19000
" />
<path d="M39000 26000
L38500 26000
" />
<path d="M30500 24000
L30500 26000
" />
<path d="M30500 26000
L38500 26000
" />
<path d="M38500 26000
L36000 26000
" />
<path d="M32000 26000
L36000 26000
" />
<path d="M31500 26000
L32000 26000
" />
<path d="M30500 26000
L31500 26000
" />
<path d="M30500 25000
L30500 26000
" />
<path d="M30500 24500
L30500 25000
" />
<path d="M30500 24000
L30500 25500
" />
<path d="M38500 20000
L38500 25500
" />
<path d="M37500 20000
L38500 20000
" />
<path d="M38500 25500
L37500 25500
" />
<path d="M31500 25500
L31500 24500
" />
<path d="M37500 25500
L31500 25500
" />
<path d="M31500 25000
L31500 25500
" />
<path d="M31500 24000
L31500 25000
" />
<path d="M37500 20000
L37500 19000
" />
<path d="M20500 19000
L20500 26000
" />
<path d="M20500 26000
L21000 26000
" />
<path d="M21000 26000
L23000 26000
" />
<path d="M27500 26000
L28500 26000
" />
<path d="M28500 26000
L28500 25000
" />
<path d="M27500 26000
L27000 26000
" />
<path d="M27000 26000
L23000 26000
" />
<path d="M28500 26000
L28500 24000
" />
<path d="M26500 11500
L26500 15000
" />
<path d="M26500 15000
L27500 16000
" />
<path d="M26500 10500
L26500 11500
" />
<path d="M27500 16000
L27500 19000
" />
<path d="M28500 21000
L28500 20000
" />
<path d="M28500 20000
L27500 19000
" />
<path d="M27500 19000
L27500 18500
" />
<path d="M27500 19000
L27500 19000
" />
<path d="M25500 12000
L25500 15500
" />
<path d="M25500 15500
L26500 16500
" />
<path d="M26500 16500
L26500 19000
" />
<path d="M27500 21000
L27500 20000
" />
<path d="M27500 20000
L26500 19000
" />
<path d="M25500 12000
L25500 10500
" />
<path d="M26500 19000
L26500 18500
" />
<path d="M26500 19000
L26500 19000
" />
<path d="M40000 18000
L40000 21000
" />
<path d="M40000 21000
L40500 21000
" />
<path d="M43000 21000
L40500 21000
" />
<path d="M43000 21000
L44500 21000
" />
<path d="M36500 21000
L38000 21000
" />
<path d="M36500 21000
L36500 20500
" />
<path d="M38000 25000
L36500 25000
" />
<path d="M36500 25000
L32500 25000
" />
<path d="M32500 24000
L32500 25000
" />
<path d="M38000 21000
L38000 25000
" />
<path d="M36500 19000
L36500 18000
" />
<path d="M36500 18000
L40000 18000
" />
<path d="M36500 20500
L36500 19000
" />
<path d="M41000 17000
L41000 20000
" />
<path d="M41000 20000
L41500 20000
" />
<path d="M41500 20000
L42500 20000
" />
<path d="M42500 20000
L44500 20000
" />
<path d="M35500 21000
L35500 22000
" />
<path d="M35500 22000
L37500 22000
" />
<path d="M37500 24000
L35500 24000
" />
<path d="M37500 22000
L37500 24000
" />
<path d="M35500 19000
L35500 17000
" />
<path d="M35500 17000
L41000 17000
" />
<path d="M34500 24000
L35500 24000
" />
<path d="M33500 24000
L34500 24000
" />
<path d="M35500 21000
L35500 19000
" />
<path d="M28500 19000
L28500 10500
" />
<path d="M29500 19000
L30500 19000
" />
<path d="M29500 21000
L29500 19000
" />
<path d="M29500 19000
L28500 19000
" />
<path d="M28500 22500
L29500 21500
" />
<path d="M29500 21500
L29500 21000
" />
<path d="M31500 10500
L31500 11500
" />
</g>
<g style="fill:#9F0000; fill-opacity:1.0; 
stroke:#9F0000; stroke-width:100; stroke-opacity:1; 
stroke-linecap:round; stroke-linejoin:round;">
<path d="M31500 12000
L28500 12000
" />
</g>
<g style="fill:#009F00; fill-opacity:1.0; 
stroke:#009F00; stroke-width:100; stroke-opacity:1; 
stroke-linecap:round; stroke-linejoin:round;">
<path d="M31500 11500
L31500 12000
" />
<path d="M28500 10500
L28500 12000
" />
<path d="M28500 13000
L28500 19000
" />
<path d="M24500 22500
L26500 22500
" />
<path d="M26500 22500
L28500 22500
" />
<path d="M29500 21500
L29500 21000
" />
<path d="M28500 19000
L30500 19000
" />
<path d="M27500 13500
L27500 10500
" />
<path d="M35500 23000
L36500 23000
" />
<path d="M30500 22500
L35000 22500
" />
<path d="M35000 22500
L35500 23000
" />
<path d="M23500 12500
L23500 10500
" />
<path d="M41500 23000
L41500 27000
" />
<path d="M41500 27000
L29500 27000
" />
<path d="M29500 27000
L30000 26500
" />
<path d="M44500 23000
L43000 23000
" />
<path d="M41500 23000
L43000 23000
" />
<path d="M31500 6500
L29500 6500
" />
<path d="M31500 6500
L38500 6500
" />
<path d="M29500 6500
L43500 6500
" />
<path d="M43500 6500
L44000 7000
" />
<path d="M38500 6500
L43500 6500
" />
<path d="M43500 6500
L44000 7000
" />
<path d="M29500 6500
L23500 6500
" />
<path d="M23500 8500
L23500 6500
" />
<path d="M29500 10500
L29500 6500
" />
<path d="M44000 7000
L44000 10500
" />
<path d="M31000 17000
L30500 17500
" />
<path d="M29500 17000
L29500 10500
" />
<path d="M30000 17500
L29500 17000
" />
<path d="M30500 17500
L30000 17500
" />
<path d="M29500 27000
L29500 24000
" />
<path d="M23500 10500
L23500 8500
" />
<path d="M20500 10500
L21500 10500
" />
<path d="M21500 10500
L22500 10500
" />
<path d="M22500 10500
L23500 10500
" />
<path d="M29500 24000
L29500 23500
" />
<path d="M29500 23500
L30500 22500
" />
</g>
<g style="fill:#FFFFFF; fill-opacity:1.0; 
stroke:#FFFFFF; stroke-width:39.3701; stroke-opacity:1; 
stroke-linecap:round; stroke-linejoin:round;">
<circle cx="28500" cy="12000" r="105.315" /> 
<circle cx="31500" cy="12000" r="105.315" /> 
<circle cx="31500" cy="16500" r="135.315" /> 
<circle cx="31000" cy="16000" r="135.315" /> 
<circle cx="31000" cy="17000" r="135.315" /> 
<circle cx="28500" cy="19000" r="140.315" /> 
<circle cx="27500" cy="19000" r="140.315" /> 
<circle cx="26500" cy="19000" r="140.315" /> 
<circle cx="25500" cy="19000" r="140.315" /> 
<circle cx="24500" cy="19000" r="140.315" /> 
<circle cx="23500" cy="19000" r="140.315" /> 
<circle cx="22500" cy="19000" r="140.315" /> 
<circle cx="21500" cy="19000" r="140.315" /> 
<circle cx="20500" cy="19000" r="140.315" /> 
<circle cx="30500" cy="19000" r="140.315" /> 
<circle cx="31500" cy="19000" r="140.315" /> 
<circle cx="32500" cy="19000" r="140.315" /> 
<circle cx="33500" cy="19000" r="140.315" /> 
<circle cx="34500" cy="19000" r="140.315" /> 
<circle cx="35500" cy="19000" r="140.315" /> 
<circle cx="36500" cy="19000" r="140.315" /> 
<circle cx="37500" cy="19000" r="140.315" /> 
<circle cx="38500" cy="19000" r="140.315" /> 
<circle cx="23500" cy="12500" r="98.4252" /> 
<circle cx="27500" cy="13500" r="98.4252" /> 
<circle cx="23500" cy="14500" r="98.4252" /> 
<circle cx="44500" cy="20000" r="180.315" /> 
<circle cx="44500" cy="21000" r="180.315" /> 
<circle cx="44500" cy="22000" r="180.315" /> 
<circle cx="44500" cy="23000" r="180.315" /> 
<circle cx="28500" cy="27000" r="180.315" /> 
<circle cx="29500" cy="27000" r="180.315" /> 
<circle cx="31500" cy="10500" r="180.315" /> 
<circle cx="30500" cy="10500" r="180.315" /> 
<circle cx="21500" cy="10500" r="180.315" /> 
<circle cx="28500" cy="10500" r="180.315" /> 
<circle cx="19500" cy="10500" r="180.315" /> 
<circle cx="26500" cy="10500" r="180.315" /> 
<circle cx="17500" cy="10500" r="180.315" /> 
<circle cx="24500" cy="10500" r="180.315" /> 
<circle cx="22500" cy="10500" r="180.315" /> 
<circle cx="20500" cy="10500" r="180.315" /> 
<circle cx="18500" cy="10500" r="180.315" /> 
<circle cx="16500" cy="10500" r="180.315" /> 
<circle cx="29500" cy="10500" r="180.315" /> 
<circle cx="27500" cy="10500" r="180.315" /> 
<circle cx="25500" cy="10500" r="180.315" /> 
<circle cx="23500" cy="10500" r="180.315" /> 
<circle cx="25500" cy="24000" r="140.315" /> 
<circle cx="26500" cy="24000" r="140.315" /> 
<circle cx="27500" cy="24000" r="140.315" /> 
<circle cx="28500" cy="24000" r="140.315" /> 
<circle cx="29500" cy="24000" r="140.315" /> 
<circle cx="30500" cy="24000" r="140.315" /> 
<circle cx="31500" cy="24000" r="140.315" /> 
<circle cx="32500" cy="24000" r="140.315" /> 
<circle cx="33500" cy="24000" r="140.315" /> 
<circle cx="33500" cy="21000" r="140.315" /> 
<circle cx="32500" cy="21000" r="140.315" /> 
<circle cx="31500" cy="21000" r="140.315" /> 
<circle cx="30500" cy="21000" r="140.315" /> 
<circle cx="29500" cy="21000" r="140.315" /> 
<circle cx="28500" cy="21000" r="140.315" /> 
<circle cx="27500" cy="21000" r="140.315" /> 
<circle cx="26500" cy="21000" r="140.315" /> 
<circle cx="25500" cy="21000" r="140.315" /> 
<circle cx="28500" cy="22500" r="140.315" /> 
<circle cx="30500" cy="22500" r="140.315" /> 
<circle cx="54000" cy="23500" r="140.315" /> 
<circle cx="54000" cy="21500" r="140.315" /> 
<circle cx="36500" cy="21000" r="140.315" /> 
<circle cx="36500" cy="23000" r="140.315" /> 
<circle cx="35500" cy="21000" r="140.315" /> 
<circle cx="35500" cy="23000" r="140.315" /> 
<circle cx="19500" cy="22500" r="205.315" /> 
<circle cx="24500" cy="22500" r="205.315" /> 
<circle cx="60000" cy="16000" r="140.315" /> 
<circle cx="60000" cy="14000" r="140.315" /> 
<circle cx="57000" cy="16000" r="140.315" /> 
<circle cx="57000" cy="14000" r="140.315" /> 
<circle cx="52500" cy="16000" r="140.315" /> 
<circle cx="52500" cy="14000" r="140.315" /> 
<circle cx="49500" cy="16000" r="140.315" /> 
<circle cx="49500" cy="14000" r="140.315" /> 
<circle cx="60000" cy="23500" r="140.315" /> 
<circle cx="60000" cy="21500" r="140.315" /> 
<circle cx="57000" cy="23500" r="140.315" /> 
<circle cx="57000" cy="21500" r="140.315" /> 
<circle cx="52500" cy="23500" r="140.315" /> 
<circle cx="52500" cy="21500" r="140.315" /> 
<circle cx="49500" cy="23500" r="140.315" /> 
<circle cx="49500" cy="21500" r="140.315" /> 
<circle cx="44500" cy="14000" r="180.315" /> 
<circle cx="44500" cy="15000" r="180.315" /> 
<circle cx="44500" cy="16000" r="180.315" /> 
<circle cx="44500" cy="17000" r="180.315" /> 
<circle cx="44500" cy="18000" r="180.315" /> 
<circle cx="47000" cy="14000" r="180.315" /> 
<circle cx="47000" cy="15000" r="180.315" /> 
<circle cx="47000" cy="16000" r="180.315" /> 
<circle cx="47000" cy="17000" r="180.315" /> 
<circle cx="47000" cy="18000" r="180.315" /> 
</g> 
</svg>
